HIERARCHY
ROOT Hips
{
 OFFSET 0.000000 0.000000 0.000000
 CHANNELS 6 Xposition Yposition Zposition Yrotation Xrotation Zrotation
 JOINT Chest
 {
  OFFSET 0.000000 16.280000 -0.014500
  CHANNELS 3 Yrotation Xrotation Zrotation
  JOINT Chest2
  {
   OFFSET 0.000000 10.601900 0.029500
   CHANNELS 3 Yrotation Xrotation Zrotation
   JOINT Chest3
   {
    OFFSET 0.000000 10.554800 0.000000
    CHANNELS 3 Yrotation Xrotation Zrotation
    JOINT Chest4
    {
     OFFSET 0.000000 10.544000 0.000000
     CHANNELS 3 Yrotation Xrotation Zrotation
     JOINT Neck
     {
      OFFSET 0.000000 16.186500 0.000000
      CHANNELS 3 Yrotation Xrotation Zrotation
      JOINT Head
      {
       OFFSET 0.000000 9.876700 0.062400
       CHANNELS 3 Yrotation Xrotation Zrotation
       End Site
       {
        OFFSET 0.000000 18.635100 0.032900
       }
      }
     }
     JOINT RightCollar
     {
      OFFSET -3.550000 10.761000 0.000000
      CHANNELS 3 Yrotation Xrotation Zrotation
      JOINT RightShoulder
      {
       OFFSET -16.915100 0.000000 0.000000
       CHANNELS 3 Yrotation Xrotation Zrotation
       JOINT RightElbow
       {
        OFFSET 0.000000 -31.241900 0.000000
        CHANNELS 3 Yrotation Xrotation Zrotation
        JOINT RightWrist
        {
         OFFSET 0.000000 -25.690800 0.013700
         CHANNELS 3 Yrotation Xrotation Zrotation
         End Site
         {
          OFFSET 0.000000 -19.336200 0.000000
         }
        }
       }
      }
     }
     JOINT LeftCollar
     {
      OFFSET 3.550000 10.761000 0.000000
      CHANNELS 3 Yrotation Xrotation Zrotation
      JOINT LeftShoulder
      {
       OFFSET 16.915100 0.000000 0.000000
       CHANNELS 3 Yrotation Xrotation Zrotation
       JOINT LeftElbow
       {
        OFFSET 0.000000 -31.241900 0.000000
        CHANNELS 3 Yrotation Xrotation Zrotation
        JOINT LeftWrist
        {
         OFFSET 0.000000 -25.690800 0.013700
         CHANNELS 3 Yrotation Xrotation Zrotation
         End Site
         {
          OFFSET 0.000000 -19.336200 0.000000
         }
        }
       }
      }
     }
    }
   }
  }
 }
 JOINT RightHip
 {
  OFFSET -13.350800 0.071600 0.007200
  CHANNELS 3 Yrotation Xrotation Zrotation
  JOINT RightKnee
  {
   OFFSET 0.000000 -49.946400 0.002700
   CHANNELS 3 Yrotation Xrotation Zrotation
   JOINT RightAnkle
   {
    OFFSET 0.000000 -42.233900 0.021900
    CHANNELS 3 Yrotation Xrotation Zrotation
    JOINT RightToe
    {
     OFFSET 0.000000 -11.862800 19.724700
     CHANNELS 3 Yrotation Xrotation Zrotation
     End Site
     {
      OFFSET 0.000000 -1.715400 7.529500
     }
    }
   }
  }
 }
 JOINT LeftHip
 {
  OFFSET 13.350800 0.071600 0.007200
  CHANNELS 3 Yrotation Xrotation Zrotation
  JOINT LeftKnee
  {
   OFFSET 0.000000 -49.946400 0.002700
   CHANNELS 3 Yrotation Xrotation Zrotation
   JOINT LeftAnkle
   {
    OFFSET 0.000000 -42.233900 0.021900
    CHANNELS 3 Yrotation Xrotation Zrotation
    JOINT LeftToe
    {
     OFFSET 0.000000 -11.862800 19.724700
     CHANNELS 3 Yrotation Xrotation Zrotation
     End Site
     {
      OFFSET 0.000000 -1.715400 7.529500
     }
    }
   }
  }
 }
}
MOTION
Frames: 5
Frame Time: 0.008333
55.957622 130.400546 35.595422 -179.071999 -21.070876 7.306269 4.137905 22.370089 1.698946 0.540463 3.173414 0.153265 0.880567 5.139092 0.263526 3.448248 18.836368 1.401578 -7.399542 12.820184 -4.554944 -7.023271 -12.103536 -3.236344 11.662295 1.621714 -10.270838 11.251830 -35.760508 -30.299627 -150.147918 -76.013782 154.432072 -18.093920 -4.063226 -1.299439 -4.772632 7.977736 0.508893 8.043200 -4.344666 -1.798689 -46.272577 -67.965269 49.553923 8.450287 -15.862719 8.245377 14.465745 -53.327516 -25.477233 -169.547950 70.827380 -159.615286 -2.248907 -17.510447 0.286716 -0.073466 -0.039966 -0.044164 -4.520459 -47.586076 -5.308399 155.189359 74.524360 149.828950 0.932652 -33.381538 -3.680252 -0.017439 0.007295 -0.010488
55.922170 130.402078 35.595693 -178.901948 -21.118493 7.190938 4.043381 22.245937 1.665867 0.521942 3.130449 0.151076 0.851074 5.073454 0.259495 3.359977 18.741951 1.382145 -7.395672 12.863510 -4.508270 -7.027747 -12.057680 -3.185259 11.287760 1.661098 -9.912631 10.333516 -33.937935 -28.862422 -154.824213 -76.484213 159.532108 -17.783776 -4.283718 -1.875754 -4.648966 7.998601 0.527609 8.285526 -4.113068 -1.996988 -46.786485 -68.535330 50.193504 8.537504 -15.762223 8.934258 14.337004 -53.288869 -25.270764 -169.317744 70.748969 -159.480457 -2.315004 -17.516655 0.423675 -0.080057 -0.044363 -0.048125 -4.764518 -47.527764 -5.105632 155.365612 74.503180 149.910445 0.868100 -33.409223 -3.614147 -0.054568 0.001250 -0.032814
55.884730 130.401127 35.600110 -178.726275 -21.154207 7.076485 3.935980 22.111407 1.627878 0.503755 3.087348 0.147876 0.822091 5.007535 0.253890 3.271619 18.646237 1.356624 -7.396977 12.909111 -4.456679 -7.039097 -12.009358 -3.127628 10.918406 1.697087 -9.530484 9.534772 -32.046003 -27.496909 -160.188362 -77.012226 165.192549 -17.510783 -4.321743 -2.340121 -4.517295 8.010445 0.544971 8.488089 -3.905518 -2.154795 -47.272786 -69.093468 50.799803 8.642394 -15.653020 9.647301 14.233797 -53.257722 -25.099498 -169.104420 70.671360 -159.351774 -2.339267 -17.523596 0.473720 -0.083707 -0.038435 -0.050322 -4.996776 -47.486068 -4.929335 155.580487 74.503093 150.060737 0.826745 -33.428392 -3.579372 -0.070876 0.000670 -0.042620
55.852163 130.395007 35.612460 -178.541996 -21.158388 6.941312 3.819526 21.947085 1.606393 0.485261 3.043712 0.143972 0.792586 4.940824 0.247136 3.179816 18.548541 1.326354 -7.396476 12.957026 -4.408031 -7.047678 -11.958549 -3.073649 10.548806 1.769189 -9.144319 8.881466 -30.163494 -26.196881 -166.524250 -77.582375 171.677999 -17.165492 -4.120601 -2.669628 -4.373315 8.013129 0.555200 8.678809 -3.723179 -2.276316 -47.767607 -69.616989 51.390445 8.762590 -15.543392 10.367847 14.129312 -53.253480 -24.930430 -168.889391 70.599461 -159.206411 -2.384275 -17.554648 0.562429 -0.092746 -0.043925 -0.055754 -5.234881 -47.478893 -4.697475 155.987570 74.543817 150.448064 0.724569 -33.442709 -3.573089 0.000418 0.006649 0.000251
55.813108 130.388864 35.623105 -178.382518 -21.163360 6.838880 3.701006 21.791780 1.561092 0.465456 2.999123 0.140139 0.760914 4.872494 0.240371 3.078891 18.447856 1.295094 -7.386804 13.002312 -4.374772 -7.042646 -11.910640 -3.038681 10.172082 1.900543 -8.774229 8.391440 -28.359525 -24.958431 -174.212125 -78.151600 179.359805 -16.692373 -3.651955 -2.848675 -4.211615 8.006600 0.544789 8.882998 -3.561781 -2.359989 -48.280992 -70.099214 51.960045 8.886306 -15.444672 11.088500 14.089940 -53.232808 -24.818786 -168.694747 70.531707 -159.070999 -2.450443 -17.614200 0.663909 -0.093529 -0.049848 -0.056223 -5.419377 -47.488377 -4.571146 156.140487 74.523036 150.561734 0.691500 -33.445904 -3.552114 -0.017166 -0.001153 -0.010323
